<svg id="Group_2167" data-name="Group 2167" xmlns="http://www.w3.org/2000/svg" xmlns:xlink="http://www.w3.org/1999/xlink" width="418.367" height="114.818" viewBox="0 0 418.367 114.818">
  <defs>
    <clipPath id="clip-path">
      <rect id="Rectangle_1" data-name="Rectangle 1" width="418.367" height="114.819" fill="none"/>
    </clipPath>
  </defs>
  <g id="Group_2" data-name="Group 2">
    <g id="Group_1" data-name="Group 1" clip-path="url(#clip-path)">
      <path id="Path_1" data-name="Path 1" d="M104.156,247.121a4.665,4.665,0,0,1,.509-2.116l12.561-24.729h8.349l12.56,24.729a4.682,4.682,0,1,1-8.349,4.24L121.4,232.734l-8.386,16.511a4.682,4.682,0,0,1-8.857-2.124" transform="translate(-64.774 -136.989)" fill="#ffc331"/>
      <path id="Path_2" data-name="Path 2" d="M0,182.653a4.682,4.682,0,0,1,4.431-4.671l27.7-1.487,4.174,7.23L21.166,206.967a4.682,4.682,0,0,1-7.846-5.11l10.106-15.518-18.492.993a4.682,4.682,0,0,1-4.926-4.424c0-.085-.007-.171-.007-.255" transform="translate(0 -109.762)" fill="#f7536e"/>
      <path id="Path_3" data-name="Path 3" d="M0,67.4c0-.085,0-.169.007-.255a4.682,4.682,0,0,1,4.926-4.424l18.492.993L13.32,48.2a4.682,4.682,0,0,1,7.846-5.11L36.3,66.328l-4.174,7.23-27.7-1.487A4.682,4.682,0,0,1,0,67.4" transform="translate(-0.001 -25.472)" fill="#f7536e"/>
      <path id="Path_4" data-name="Path 4" d="M104.157,4.686a4.683,4.683,0,0,1,8.857-2.124L121.4,19.073l8.386-16.511a4.682,4.682,0,0,1,8.349,4.24L125.574,31.532h-8.349L104.666,6.8a4.664,4.664,0,0,1-.509-2.116" transform="translate(-64.775 0)" fill="#00ade5"/>
      <path id="Path_5" data-name="Path 5" d="M203.513,66.328l15.136-23.242a4.682,4.682,0,1,1,7.846,5.11L216.389,63.713l18.492-.993a4.682,4.682,0,1,1,.5,9.35l-27.7,1.487Z" transform="translate(-126.564 -25.472)" fill="#71c556"/>
      <path id="Path_6" data-name="Path 6" d="M203.513,183.724l4.174-7.23,27.7,1.487a4.682,4.682,0,0,1-.5,9.35l-18.492-.993,10.106,15.518a4.682,4.682,0,1,1-7.846,5.11Z" transform="translate(-126.564 -109.761)" fill="#71c556"/>
      <path id="Path_7" data-name="Path 7" d="M.679,144.017a4.682,4.682,0,0,1,4.772-4.574l22.687.442a4.682,4.682,0,0,1,4.589,4.772c0,.005,0,.011,0,.016a4.681,4.681,0,0,1-4.772,4.574L5.268,148.8a4.682,4.682,0,0,1-4.59-4.772v-.016" transform="translate(-0.421 -86.718)" fill="#f7536e"/>
      <path id="Path_8" data-name="Path 8" d="M71.289,25.141a4.682,4.682,0,0,1,8.781-2.159L91.03,42.849a4.682,4.682,0,0,1-8.2,4.523L71.871,27.5a4.662,4.662,0,0,1-.582-2.364" transform="translate(-44.334 -12.786)" fill="#00ade5"/>
      <path id="Path_9" data-name="Path 9" d="M178.537,46.271a4.66,4.66,0,0,1,.673-2.308l11.726-19.426a4.682,4.682,0,1,1,8.016,4.839L187.227,48.8a4.682,4.682,0,0,1-8.69-2.53" transform="translate(-111.031 -13.852)" fill="#00ade5"/>
      <path id="Path_10" data-name="Path 10" d="M217.2,146.275a4.682,4.682,0,0,1,4.772-4.574l22.687.442a4.682,4.682,0,0,1,4.589,4.772c0,.005,0,.011,0,.016a4.681,4.681,0,0,1-4.772,4.574l-22.686-.442a4.682,4.682,0,0,1-4.59-4.772v-.015" transform="translate(-135.073 -88.123)" fill="#71c556"/>
      <path id="Path_11" data-name="Path 11" d="M176.092,213.941a4.682,4.682,0,0,1,8.64-2.667l12.1,19.2a4.682,4.682,0,0,1-7.922,4.992l-12.1-19.2a4.661,4.661,0,0,1-.718-2.326" transform="translate(-109.509 -130.032)" fill="#ffc331"/>
      <path id="Path_12" data-name="Path 12" d="M68.322,232.654A4.66,4.66,0,0,1,69,230.345L80.721,210.92a4.682,4.682,0,0,1,8.016,4.839L77.012,235.184a4.682,4.682,0,0,1-8.69-2.53" transform="translate(-42.488 -129.763)" fill="#ffc331"/>
    </g>
  </g>
  <text id="bloombyte" transform="translate(129.7 75.8)" fill="#141944" font-size="62" font-family="PublicaPlay-Regular, Publica Play"><tspan x="0" y="0" letter-spacing="-0.04em">b</tspan><tspan y="0" letter-spacing="-0.039em">loo</tspan><tspan y="0" letter-spacing="-0.049em">m</tspan><tspan y="0" letter-spacing="-0.04em">b</tspan><tspan y="0" letter-spacing="-0.039em">y</tspan><tspan y="0" letter-spacing="-0.047em">t</tspan><tspan y="0">e</tspan></text>
</svg>
